# xmcd
#
# Track frame offsets:
#	150
#	15282
#	34345
#	49520
#
# Disc length: 895 seconds
# Revision: 0
# Processed by: cddbd v1.5.2PL0 Copyright (c) Steve Scherf et al.
# Submitted via: dBpowerAMP V12.0
#
DISCID=23037d04
DTITLE=2-One - Round For Round
DYEAR=2001
DGENRE=Chicago Rap
TTITLE0=Killin' is a Mus
TTITLE1=Round For Round
TTITLE2=Killin' is a Mus(instrumental)
TTITLE3=Chi Town Murder Fest (featuring Gangsta Unit w/Money Makin Soldiers)
EXTD=
EXTT0=
EXTT1=
EXTT2=
EXTT3=
PLAYORDER=
